<?xml version="1.0" standalone="no"?>
<!DOCTYPE svg PUBLIC "-//W3C//DTD SVG 20010904//EN"
 "http://www.w3.org/TR/2001/REC-SVG-20010904/DTD/svg10.dtd">
<svg version="1.0" xmlns="http://www.w3.org/2000/svg"
 width="1080.000000pt" height="1280.000000pt" viewBox="0 0 1080.000000 1280.000000"
 preserveAspectRatio="xMidYMid meet">
<metadata>
Created by potrace 1.15, written by Peter Selinger 2001-2017
</metadata>
<g transform="translate(0.000000,1280.000000) scale(0.100000,-0.100000)"
fill="#000000" stroke="none">
<path d="M9965 12743 c-20 -32 -88 -161 -151 -287 -82 -166 -115 -224 -120
-210 -29 84 -102 261 -131 314 -32 59 -97 140 -114 140 -25 0 -79 -216 -95
-377 -3 -40 -11 -73 -15 -73 -5 0 -62 51 -127 113 -64 61 -132 125 -149 141
l-32 29 -25 -29 c-16 -18 -25 -41 -26 -62 0 -58 30 -183 85 -347 45 -134 67
-193 131 -342 4 -7 -11 -14 -43 -18 -169 -22 -309 -61 -385 -108 -371 -224
-681 -459 -838 -638 -154 -175 -266 -391 -425 -819 -161 -433 -241 -633 -308
-763 -53 -104 -70 -128 -136 -189 -42 -38 -113 -95 -158 -125 -46 -31 -83 -61
-83 -67 0 -12 -184 -129 -265 -168 -150 -74 -234 -93 -325 -77 -81 14 -61 23
-350 -161 -411 -262 -604 -361 -772 -396 -78 -16 -168 -12 -588 28 -164 16
-300 22 -505 22 -297 1 -347 -4 -505 -51 -81 -24 -93 -24 -243 -18 -156 6
-284 23 -342 45 -16 6 -43 25 -58 43 -297 339 -480 671 -902 1632 -67 154
-153 345 -189 425 -285 619 -481 842 -695 790 -155 -37 -144 -219 40 -652 33
-78 63 -148 66 -155 3 -7 -35 27 -84 76 -109 109 -168 145 -237 146 -133 1
-190 -134 -151 -357 18 -109 64 -264 123 -418 22 -58 43 -114 47 -125 5 -11
-28 30 -71 90 -253 352 -389 464 -476 395 -41 -32 -52 -71 -45 -168 9 -134 79
-368 200 -674 30 -76 50 -135 43 -131 -6 3 -22 14 -36 23 -38 26 -95 42 -124
34 -14 -3 -37 -17 -50 -31 -25 -25 -26 -25 -62 -8 -20 9 -55 17 -78 17 -141 3
-166 -164 -65 -427 74 -191 263 -539 460 -848 49 -76 89 -140 89 -141 0 -1
-64 62 -142 139 -285 281 -436 354 -495 241 -67 -125 84 -448 448 -960 l116
-163 -156 -6 c-222 -8 -354 -45 -415 -117 -32 -39 -34 -80 -4 -107 13 -12 61
-34 108 -51 81 -28 387 -104 478 -118 70 -11 57 -21 -36 -27 -112 -8 -224 -38
-276 -74 -74 -52 -98 -131 -62 -201 28 -54 148 -112 274 -131 l47 -7 -82 -42
c-136 -69 -182 -124 -169 -197 9 -46 62 -98 121 -119 70 -23 203 -38 310 -34
52 1 95 3 95 3 0 0 -4 -16 -10 -35 -21 -72 24 -151 107 -190 91 -43 298 -36
511 17 37 9 67 12 72 7 4 -5 25 -54 45 -109 115 -311 278 -557 442 -667 160
-107 448 -249 690 -339 l92 -34 42 -120 c85 -245 194 -439 305 -546 76 -71
128 -101 239 -134 218 -65 394 -174 768 -470 97 -77 200 -152 228 -167 l52
-26 64 -234 c142 -522 344 -1158 432 -1362 12 -27 20 -50 19 -51 -2 -1 -37
-16 -78 -34 -96 -42 -199 -103 -226 -133 -12 -12 -38 -68 -58 -123 -20 -55
-43 -117 -50 -137 -8 -21 -11 -38 -6 -38 15 0 185 74 225 98 22 13 54 40 71
59 l31 35 124 10 124 10 180 -60 c301 -101 636 -231 695 -269 30 -20 101 -71
157 -115 l102 -78 32 28 31 28 -32 64 c-82 162 -192 310 -232 310 -14 0 -138
72 -138 80 0 3 42 14 93 23 557 105 662 128 681 150 10 12 21 17 22 12 7 -17
267 -456 317 -533 31 -47 43 -74 35 -77 -192 -59 -266 -92 -296 -129 -12 -16
-49 -82 -82 -147 l-61 -120 28 7 c162 36 243 66 286 104 44 38 74 42 206 31
l114 -11 62 -64 c71 -73 93 -82 220 -91 114 -8 369 -38 598 -70 l176 -24 162
-72 162 -72 29 32 29 32 -51 59 c-27 32 -91 96 -140 144 -69 65 -100 88 -133
96 -68 17 -161 43 -171 48 -13 7 41 33 379 182 370 163 407 194 282 234 -29 9
-260 -13 -607 -59 -30 -4 -31 -4 -9 4 15 5 66 14 115 20 143 19 136 15 132 64
l-3 42 -90 17 c-235 45 -309 37 -628 -68 l-198 -66 -22 28 c-174 219 -438 655
-638 1054 l-107 215 47 17 c87 33 214 160 380 382 99 130 201 287 201 306 0 5
50 67 112 137 373 425 480 658 642 1391 l52 234 89 37 c301 126 523 284 660
465 43 58 80 130 147 286 262 609 418 1279 434 1865 4 152 9 203 26 257 25 84
20 129 -28 229 -58 120 -75 170 -75 218 0 25 29 165 65 311 139 568 179 861
134 995 -25 74 -100 449 -123 619 l-7 50 24 -17 c59 -42 130 -78 203 -103 69
-24 96 -28 195 -28 108 -1 119 1 175 28 200 98 292 366 239 695 l-6 36 57 -3
c39 -3 68 -11 92 -28 76 -51 207 -70 249 -36 49 39 56 90 23 176 -43 117 -163
269 -293 374 l-74 59 49 37 c85 63 147 168 185 311 25 96 26 340 1 440 -30
118 -58 187 -75 180 -8 -3 -20 -1 -26 4 -20 16 -50 18 -78 4 l-28 -14 0 93 c0
122 -15 251 -37 310 -9 27 -19 48 -22 48 -4 0 -25 -13 -49 -28 -50 -34 -130
-131 -192 -236 -25 -41 -49 -76 -53 -76 -5 0 -6 3 -4 8 3 4 10 102 17 217 18
315 -5 465 -71 465 -23 0 -34 -10 -64 -57z m-4495 -9747 c63 -32 127 -67 142
-78 40 -27 139 -183 257 -402 171 -316 188 -338 303 -375 33 -11 43 -23 82
-94 159 -299 277 -516 328 -605 32 -57 58 -106 58 -108 0 -3 -8 0 -18 5 -22
12 -179 35 -412 61 -159 18 -165 19 -65 14 l111 -5 11 41 11 41 -57 26 c-142
64 -253 95 -361 100 -81 4 -413 -16 -494 -30 -28 -5 -184 400 -290 757 -52
173 -139 498 -134 500 15 5 288 149 338 177 36 21 67 37 70 36 3 -1 57 -29
120 -61z m548 -1573 c-10 -2 -26 -2 -35 0 -10 3 -2 5 17 5 19 0 27 -2 18 -5z"/>
</g>
</svg>
